<svg width="520" height="520" viewBox="0 0 520 520" fill="none" xmlns="http://www.w3.org/2000/svg">
<g filter="url(#filter0_d_6_81)">
<rect x="4" width="512" height="512" rx="256" fill="#04002A"/>
<path d="M280.145 357.098C273.818 360.084 267.719 363.08 261.501 365.801C260.247 366.349 258.34 366.308 257.075 365.758C252.369 363.716 247.803 361.349 243.188 359.1C241.504 358.28 239.827 357.451 237.993 356.549C237.838 364.156 239.625 366.821 246.375 368.966C250.462 370.264 254.627 371.314 258.774 372.42C259.364 372.577 260.075 372.551 260.668 372.388C264.534 371.325 268.406 370.274 272.235 369.084C278.249 367.214 280.587 363.677 280.145 357.098ZM235.946 319.708C235.833 319.772 235.723 319.835 235.611 319.899C235.611 328.241 235.397 336.591 235.74 344.921C235.843 347.455 236.75 350.872 238.545 352.253C244.307 356.684 250.572 360.498 256.849 364.201C258.166 364.978 260.762 364.935 262.079 364.136C268.06 360.5 273.827 356.504 279.584 352.511C280.409 351.938 281.159 350.707 281.249 349.717C282.121 340.106 282.845 330.48 283.611 320.859C283.283 320.829 282.954 320.801 282.626 320.773C281.487 327.745 280.347 334.718 279.221 341.612C265.698 339.374 252.513 339.432 239.327 341.661C238.182 334.228 237.063 326.969 235.946 319.708ZM198.418 392.705C172.797 368.969 155.345 340.128 140.793 308.774C135.151 314.947 132.687 322.019 131.955 329.789C131.225 337.555 132.361 345.078 135.464 352.286C118.669 329.677 112.761 291.353 146.348 257.357C141.531 257.551 131.062 262.617 122.993 269.67C116.243 275.569 110.141 282.206 104.012 288.258C108.371 268.136 113.842 247.719 123.087 228.123C120.22 227.793 117.579 227.49 114.434 227.129C123.248 218.283 134.105 212.821 143.571 205.447C127.673 209.039 113.21 215.699 100 225.256C113.575 204.705 130.784 188.149 153.55 177.729C153.479 177.46 153.41 177.188 153.341 176.919C146.744 175.983 140.148 175.047 133.052 174.041C140.277 126.114 151.018 79.0381 166.887 33.0854C166.887 33.7198 166.975 34.371 166.874 34.9885C164.835 47.4161 167.674 58.9436 172.857 70.2016C182.337 90.792 194.413 109.5 211.291 124.854C213.372 126.748 215.636 128.438 217.728 130.32C218.823 131.305 219.815 132.437 220.702 133.616C223.432 137.243 223.191 140.774 221.478 145.042C218.735 151.882 216.978 159.119 214.801 166.187C214.669 166.621 214.515 167.049 214.186 168.037C191.95 143.83 172.59 118.503 165.974 85.4213C165.22 88.2975 164.395 91.1607 163.732 94.0594C163.044 97.0704 162.385 100.1 161.936 103.156C160.162 115.243 158.921 127.341 159.986 139.614C160.953 150.756 163.448 161.443 168.328 171.503C169.326 173.558 168.946 174.658 167.314 175.948C161.938 180.196 156.631 184.533 151.303 188.845C150.465 189.522 149.666 190.247 148.992 191.237C159.969 187.846 171.001 185.17 182.414 184.466C182.633 184.679 182.85 184.893 183.067 185.108C181.316 187.557 179.893 190.355 177.747 192.385C172.984 196.892 167.956 201.136 162.86 205.272C149.589 216.045 138.92 229.047 129.783 243.393C128.325 245.683 126.884 247.987 124.969 251.02C126.09 250.289 126.581 250.042 126.985 249.695C135.382 242.523 144.837 237.371 155.542 234.513C157.688 233.941 159.44 234.073 161.337 235.35C165.841 238.379 170.482 241.205 175.09 244.13C173.675 235.009 172.27 225.946 170.862 216.883C171.092 216.872 171.321 216.861 171.551 216.85C174.072 220.65 176.233 224.765 179.201 228.181C183.368 232.979 188.189 237.204 192.613 241.789C194.185 243.417 195.802 245.206 196.713 247.229C198.65 251.537 200.585 255.768 204.142 259.026C208.882 263.366 214.641 264.679 220.82 264.337C223.052 264.213 224.304 265.263 225.958 266.457C232.577 271.235 232.972 278.316 234.116 285.468C236.139 298.133 238.775 310.703 241.345 323.275C242.262 327.764 243.691 328.709 248.169 328.73C255.591 328.764 263.015 328.764 270.437 328.683C274.902 328.634 276.442 327.648 277.34 323.286C279.969 310.538 282.391 297.748 284.775 284.952C285.39 281.645 285.477 278.241 285.991 274.91C286.152 273.869 286.74 272.773 287.432 271.961C289.382 269.678 291.396 267.432 293.579 265.377C294.36 264.642 295.739 264.049 296.77 264.15C309.581 265.407 317.044 258.998 321.345 248.29C322.625 245.101 324.634 242.786 327.191 240.621C335.191 233.845 342.219 226.219 346.993 216.743C347.27 216.775 347.547 216.807 347.824 216.836C347.347 221.348 347.049 225.89 346.348 230.366C345.625 234.97 344.512 239.512 343.539 244.231C348.056 241.299 352.521 238.55 356.814 235.554C359.093 233.965 361.157 233.783 363.85 234.521C373.331 237.116 381.71 241.783 389.645 247.409C390.244 247.833 390.848 248.253 391.992 249.054C391.576 248.116 391.453 247.716 391.237 247.371C381.128 231.19 369.549 216.264 354.481 204.31C350.951 201.51 347.375 198.756 344.01 195.767C340.513 192.661 337.453 189.154 335.993 184.183C348.125 185.198 359.565 187.716 370.812 191.489C365.368 187.2 359.907 182.933 354.484 178.616C349.437 174.6 349.449 174.574 352.022 168.668C356.266 158.933 358.476 148.695 359.06 138.15C360.057 120.11 357.939 102.396 352.617 84.2685C349.456 101.03 343.281 115.834 334.757 129.718C326.272 143.536 316.198 156.078 304.692 168.116C304.297 166.372 304.095 164.948 303.651 163.602C301.186 156.139 298.61 148.714 296.216 141.229C295.836 140.042 295.846 138.502 296.263 137.334C297.762 133.15 300.91 130.307 304.218 127.412C316.745 116.452 327.449 103.85 335.43 89.2276C340.485 79.9645 344.716 70.2391 349.05 60.5998C352.757 52.3546 352.227 43.5686 351.546 34.8295C351.475 33.9069 351.354 32.9881 351.572 32C367.348 78.1773 378.475 125.481 386.383 173.927C379.339 174.935 372.546 175.908 365.754 176.883C365.636 177.104 365.516 177.327 365.398 177.549C388.163 188.162 405.759 204.534 419.409 225.413C405.78 215.873 390.951 209.05 374.386 204.946C384.804 212.216 394.842 219.221 404.88 226.225C404.732 226.538 404.582 226.852 404.434 227.164C401.627 227.473 398.82 227.78 395.747 228.119C404.741 247.74 410.402 268.231 415.097 289.77C403.798 274.622 390.794 262.791 372.721 256.964C376.961 262.565 381.186 267.593 384.802 273.029C393.732 286.458 398.283 301.234 396.921 317.474C395.847 330.266 391.198 341.805 383.687 352.277C389.231 336.958 389.273 322.362 378.812 309.152C370.104 324.138 361.895 339.159 352.819 353.637C343.72 368.15 332.554 381.105 319.795 392.743C320.033 392.254 320.25 391.757 320.51 391.281C329.354 375.152 333.009 357.85 330.172 339.743C329.277 334.035 330.402 330.042 333.437 325.869C335.359 323.228 337.26 320.575 339.519 317.446C342.597 320.973 345.397 324.182 348.41 327.633C351.666 322.15 354.894 316.712 358.126 311.276C359.516 308.938 361.124 306.702 362.25 304.245C363.298 301.958 364.859 301.389 367.151 301.524C369.653 301.668 372.17 301.556 374.947 301.556C374.025 292.211 371.577 283.612 366.839 275.81C363.388 270.131 361.266 264.112 362.692 257.606C363.761 252.738 366.001 248.124 367.776 243.417C368.132 242.48 368.755 241.643 369.457 240.402C365.845 239.845 362.55 239.244 359.226 238.898C358.504 238.823 357.405 239.472 356.954 240.12C351.397 248.099 347.252 256.664 347.452 266.652C347.506 269.384 348.524 272.116 349.274 274.801C349.465 275.486 350.214 276.306 350.882 276.525C359.239 279.244 363.28 285.762 366.019 293.468C366.113 293.728 366.214 293.988 366.429 294.567C354.572 297.926 343.483 302.967 333.121 309.64C322.527 316.463 314.602 325.622 308.923 336.829C308.691 336.758 308.46 336.685 308.228 336.614C308.898 333.133 309.346 329.591 310.279 326.183C314.645 310.269 322.771 296.754 335.988 286.557C336.63 286.059 337.41 285.433 337.612 284.721C340.812 273.458 340.372 262.378 335.829 251.544C341.173 274.582 333.516 279.671 316.648 287.401C313.547 282.921 310.42 278.404 307.295 273.888C307.139 273.922 306.986 273.956 306.83 273.989C306.995 275.269 307.147 276.551 307.324 277.831C309.396 292.828 307.001 307.127 300.939 320.954C299.742 323.687 299.143 326.86 299.04 329.856C298.782 337.458 299.053 345.076 298.926 352.683C298.86 356.56 296.948 359.942 294.27 362.455C291.008 365.517 287.039 367.811 283.573 370.676C281.575 372.33 279.664 374.26 278.261 376.421C276.7 378.828 274.658 380.036 272.022 380.072C263.672 380.186 255.316 380.166 246.964 380.1C244.507 380.081 242.731 378.925 241.126 376.844C238.863 373.913 236.112 371.322 233.343 368.84C231.258 366.971 228.758 365.575 226.54 363.846C221.926 360.241 219.47 355.584 219.613 349.597C219.772 342.93 219.942 336.253 219.742 329.591C219.658 326.785 219.081 323.816 217.964 321.254C213.203 310.331 210.643 298.998 211.019 287.087C211.158 282.698 211.841 278.327 212.339 273.304C208.852 278.344 205.645 282.981 202.456 287.592C184.677 279.223 178.825 274.281 182.556 251.14C181.493 255.53 180.137 259.874 179.439 264.322C178.456 270.58 178.789 276.884 180.53 283.013C180.938 284.45 181.782 286.056 182.923 286.946C197.207 298.092 205.183 313.003 209.156 330.352C209.55 332.076 209.872 333.818 210.058 335.686C204.11 324.922 196.137 316.147 185.67 309.62C175.438 303.238 164.713 298.038 152.706 294.844C155.199 286.786 158.757 280.004 167.091 276.854C168.231 276.424 169.416 275.292 169.94 274.182C172.352 269.086 172.238 263.603 170.499 258.517C168.488 252.628 165.555 247.047 162.896 241.39C161.766 238.988 159.866 238.095 157.097 238.894C154.69 239.59 152.154 239.841 149.402 240.337C150.626 242.665 151.775 244.678 152.765 246.767C157.598 256.956 157.926 266.77 151.344 276.617C146.432 283.967 144.478 292.536 143.266 301.758C146.617 301.758 149.755 301.846 152.886 301.724C154.623 301.655 155.536 302.323 156.399 303.818C165.967 320.384 175.494 336.973 185.328 353.379C187.762 357.442 188.247 361.748 189.143 366.134C190.077 370.706 191.325 375.248 192.866 379.653C194.366 383.944 196.408 388.046 198.418 392.705Z" fill="white"/>
<path d="M244.735 480C233.592 469.586 222.579 459.295 211.364 448.814C214.212 446.314 216.931 443.926 219.86 441.355C227.847 448.741 235.744 456.047 243.878 463.571C255.58 452.149 267.223 440.784 279.202 429.09C276.853 437.126 274.655 444.75 272.37 452.345C272.115 453.191 271.488 454.007 270.841 454.64C262.246 463.031 253.615 471.384 244.735 480Z" fill="white"/>
<path d="M316.724 356.4C313.926 376.258 303.621 391.733 290.196 405.261C277.171 418.384 263.583 430.948 250.207 443.722C249.578 444.321 248.613 444.882 247.787 444.905C243.51 445.023 239.226 444.959 234.231 444.959C238.994 440.745 243.321 437.077 247.467 433.217C263.954 417.868 280.592 402.672 296.749 386.981C305.328 378.65 312.261 368.921 316.026 357.3C316.107 357.049 316.363 356.854 316.724 356.4Z" fill="white"/>
<path d="M286.06 261.038C285.81 251.197 287.662 243.047 295.293 236.845C299.712 233.254 303.924 229.235 307.478 224.805C310.994 220.426 313.567 215.287 316.333 210.837C316.994 216.528 315.835 222.715 313.651 229.218C327.084 222.861 339.077 215.098 348.363 203.552C348.602 203.78 348.842 204.009 349.082 204.237C345.509 208.972 342.231 213.968 338.306 218.394C328.326 229.656 317.166 239.373 302.335 243.882C296.132 245.768 292.08 250.199 289.034 255.701C288.151 257.293 287.26 258.882 286.06 261.038Z" fill="white"/>
<path d="M172.309 206.602C181.547 216.702 192.811 223.798 205.663 229.869C202.991 222.939 201.853 216.247 202.724 209.233C205.188 219.879 212.522 227.039 220.193 233.961C221.377 235.03 222.513 236.16 223.771 237.137C231.138 242.865 232.731 250.777 232.339 260.31C231.467 258.759 230.902 257.866 230.446 256.921C227.053 249.901 221.776 245.534 214.21 242.914C196.123 236.649 182.914 224.189 172.935 208.099C172.739 207.783 172.574 207.444 172.421 207.106C172.352 206.952 172.344 206.771 172.309 206.602Z" fill="white"/>
<path d="M202.37 357.975C211.019 379.228 227.734 393.497 244.56 407.663C247.775 410.371 251.074 412.975 254.56 415.812C252.125 417.981 249.852 420.008 247.093 422.465C238.622 413.926 230.025 405.707 221.954 397.002C213.913 388.324 207.986 378.24 204.571 366.819C203.703 363.911 203.096 360.924 202.37 357.975Z" fill="white"/>
<path d="M275.633 285.206C275.633 268.607 275.611 252.008 275.693 235.409C275.699 234.438 276.38 233.311 277.055 232.524C284.932 223.36 293.098 214.424 299.038 203.78C299.803 202.41 300.526 201.018 301.432 199.698C300.902 205.866 298.847 211.578 296.128 217.046C294.631 220.055 293.119 223.165 291.008 225.734C286.156 231.64 283.603 238.36 282.486 245.812C280.697 257.742 278.764 269.647 276.883 281.562C276.696 282.752 276.453 283.933 276.236 285.12C276.036 285.148 275.833 285.178 275.633 285.206Z" fill="white"/>
<path d="M217.444 199.974C223.578 212.301 232.755 222.221 241.614 232.386C242.346 233.226 243.061 234.456 243.063 235.506C243.109 251.376 243.035 267.247 242.982 283.12C242.98 283.352 242.9 283.586 242.52 283.848C241.584 277.287 240.838 270.694 239.672 264.175C237.958 254.597 235.991 245.061 234.005 235.534C233.734 234.231 232.856 232.987 232.04 231.877C225.781 223.37 220.215 214.524 218.054 203.971C217.784 202.652 217.644 201.307 217.444 199.974Z" fill="white"/>
<path d="M325.956 176.99C324.734 173.058 323.558 169.636 322.671 166.138C322.473 165.36 323.055 164.106 323.676 163.447C326.111 160.861 328.598 158.303 331.261 155.956C337.678 150.299 342.253 143.504 344.62 135.257C344.697 134.993 344.819 134.733 344.963 134.501C345.053 134.359 345.229 134.271 345.461 134.08C344.665 150.909 336.721 164.33 325.956 176.99Z" fill="white"/>
<path d="M173.985 135.86C177.425 145.608 183.544 153.247 191.563 159.487C192.005 159.83 192.362 160.283 192.789 160.646C195.463 162.927 196.505 165.549 195.094 169.05C194.194 171.284 193.767 173.712 192.98 176.605C182.532 164.669 175.426 151.592 173.985 135.86Z" fill="white"/>
<path d="M260.198 137.632C260.198 169.748 260.198 201.862 260.198 233.978C259.961 233.978 259.723 233.978 259.485 233.978C257.816 201.862 257.521 169.746 259.323 137.632C259.615 137.632 259.907 137.632 260.198 137.632Z" fill="white"/>
<path d="M293.63 257.08C295.017 255.345 296.379 253.637 297.741 251.93C302.756 255.512 306.11 254.234 307.68 248.236C307.865 247.527 308.312 246.644 308.902 246.322C311.475 244.918 314.144 243.693 316.724 242.428C314.046 254.676 307.891 258.617 293.63 257.08Z" fill="white"/>
<path d="M225.377 257.542C222.049 257.335 218.602 257.046 215.148 256.923C210.367 256.753 207.428 253.897 205.233 250.115C204.083 248.131 203.36 245.899 202.194 243.202C205.374 244.49 207.949 245.532 210.72 246.653C210.829 249.522 211.371 252.538 214.658 253.803C217.193 254.78 219.42 253.824 221.099 251.803C222.575 253.783 223.982 255.671 225.377 257.542Z" fill="white"/>
<path d="M252.58 358.214C252.747 352.222 248.151 351.565 244.131 350.285C253.671 349.374 254.919 352.686 252.58 358.214Z" fill="white"/>
<path d="M274.937 350.402C270.959 351.768 266.426 352.215 266.565 358.342C266.215 358.172 265.865 358.003 265.513 357.833C265.691 355.866 265.146 353.271 266.196 352.062C268.397 349.524 271.825 350.013 274.937 350.402Z" fill="white"/>
</g>
<defs>
<filter id="filter0_d_6_81" x="0" y="0" width="520" height="520" filterUnits="userSpaceOnUse" color-interpolation-filters="sRGB">
<feFlood flood-opacity="0" result="BackgroundImageFix"/>
<feColorMatrix in="SourceAlpha" type="matrix" values="0 0 0 0 0 0 0 0 0 0 0 0 0 0 0 0 0 0 127 0" result="hardAlpha"/>
<feOffset dy="4"/>
<feGaussianBlur stdDeviation="2"/>
<feComposite in2="hardAlpha" operator="out"/>
<feColorMatrix type="matrix" values="0 0 0 0 0 0 0 0 0 0 0 0 0 0 0 0 0 0 0.25 0"/>
<feBlend mode="normal" in2="BackgroundImageFix" result="effect1_dropShadow_6_81"/>
<feBlend mode="normal" in="SourceGraphic" in2="effect1_dropShadow_6_81" result="shape"/>
</filter>
</defs>
</svg>
